<svg version="1.1" viewBox="0.0 0.0 1345.8188976377953 413.4540682414698" fill="none" stroke="none" stroke-linecap="square" stroke-miterlimit="10" xmlns:xlink="http://www.w3.org/1999/xlink" xmlns="http://www.w3.org/2000/svg"><clipPath id="p.0"><path d="m0 0l1345.8188 0l0 413.45407l-1345.8188 0l0 -413.45407z" clip-rule="nonzero"/></clipPath><g clip-path="url(#p.0)"><path fill="#000000" fill-opacity="0.0" d="m0 0l1345.8188 0l0 413.45407l-1345.8188 0z" fill-rule="evenodd"/><path fill="#000000" fill-opacity="0.0" d="m871.67316 95.62391l157.48029 0l0 218.17325l-157.48029 0z" fill-rule="evenodd"/><path fill="#000000" d="m1023.8138 207.95517q0 11.59375 -2.421875 20.609375q-2.40625 9.015625 -6.8125 15.703125q-4.390625 6.671875 -10.671875 11.328125q-6.28125 4.65625 -13.984375 7.46875q-7.6875 2.8125 -16.703125 4.09375q-9.0 1.265625 -18.921875 1.265625l-62.328125 0l0 -120.765625l62.140625 0q14.859375 0 27.59375 2.90625q12.75 2.890625 22.109375 9.890625q9.359375 6.984375 14.671875 18.59375q5.328125 11.59375 5.328125 28.90625zm-11.34375 0q0 -9.84375 -1.9375 -17.40625q-1.921875 -7.5625 -5.53125 -13.140625q-3.59375 -5.578125 -8.78125 -9.359375q-5.1875 -3.78125 -11.703125 -6.109375q-6.5 -2.328125 -14.140625 -3.296875q-7.640625 -0.96875 -16.265625 -0.96875l-51.140625 0l0 100.640625l51.140625 0q12.921875 0 23.640625 -2.328125q10.734375 -2.328125 18.421875 -8.078125q7.6875 -5.765625 11.984375 -15.46875q4.3125 -9.71875 4.3125 -24.484375z" fill-rule="nonzero"/><path fill="#000000" fill-opacity="0.0" d="m30.278975 95.33955l167.9685 0l0 218.17325l-167.9685 0z" fill-rule="evenodd"/><path fill="#000000" d="m183.82585 262.15518q-14.859375 4.921875 -29.671875 7.078125q-14.796875 2.15625 -30.265625 2.15625q-19.78125 0 -35.203125 -4.265625q-15.421875 -4.265625 -25.96875 -12.34375q-10.546875 -8.09375 -16.09375 -19.78125q-5.53125 -11.6875 -5.53125 -26.453125q0 -13.703125 5.578125 -25.4375q5.578125 -11.734375 15.8125 -20.390625q10.25 -8.65625 24.75 -13.53125q14.5 -4.890625 32.34375 -4.890625q16.4375 0 30.09375 4.4375q13.671875 4.4375 23.46875 13.140625q9.8125 8.703125 15.21875 21.453125q5.40625 12.734375 5.40625 29.359375l0 8.078125l-119.015625 0q1.59375 5.71875 5.234375 10.46875q3.640625 4.734375 9.875 8.078125q6.25 3.34375 15.34375 5.1875q9.109375 1.84375 21.765625 1.84375q8.953125 0 17.5625 -1.09375q8.625 -1.109375 16.09375 -2.90625q7.46875 -1.796875 13.484375 -4.0q6.03125 -2.203125 9.71875 -4.390625l0 28.203125zm-22.5 -65.296875q-0.4375 -4.484375 -2.6875 -9.265625q-2.234375 -4.796875 -7.078125 -8.65625q-4.828125 -3.875 -12.65625 -6.375q-7.8125 -2.515625 -19.5 -2.515625q-10.984375 0 -18.984375 2.734375q-8.0 2.71875 -13.40625 6.765625q-5.40625 4.046875 -8.390625 8.703125q-2.984375 4.65625 -3.875 8.609375l86.578125 0z" fill-rule="nonzero"/><path fill="#000000" fill-opacity="0.0" d="m210.67778 95.7671l167.96849 0l0 218.17325l-167.96849 0z" fill-rule="evenodd"/><path fill="#000000" d="m363.14587 260.30148q-6.328125 2.640625 -12.75 4.75q-6.421875 2.109375 -13.28125 3.640625q-6.84375 1.546875 -14.453125 2.328125q-7.59375 0.796875 -16.296875 0.796875q-18.453125 0 -33.96875 -3.953125q-15.515625 -3.953125 -26.71875 -11.906265q-11.203125 -7.953125 -17.453125 -19.859375q-6.234375 -11.921875 -6.234375 -27.828125q0 -15.90625 6.234375 -27.8125q6.25 -11.90625 17.453125 -19.859375q11.203125 -7.953125 26.71875 -11.90625q15.515625 -3.96875 33.96875 -3.96875q8.703125 0 16.296875 0.796875q7.609375 0.796875 14.453125 2.328125q6.859375 1.53125 13.28125 3.640625q6.421875 2.109375 12.75 4.75l0 29.359375q-5.015625 -2.71875 -10.5625 -5.40625q-5.53125 -2.6875 -12.21875 -4.828125q-6.671875 -2.15625 -14.671875 -3.515625q-7.984375 -1.375 -18.015625 -1.375q-15.375 0 -25.53125 3.171875q-10.140625 3.15625 -16.21875 8.4375q-6.0625 5.265625 -8.53125 12.078125q-2.453125 6.8125 -2.453125 14.109375q0 4.84375 1.046875 9.546875q1.0625 4.6875 3.515625 8.875q2.46875 4.171875 6.421875 7.6875q3.96875 3.515625 9.84375 6.0625q5.890625 2.546875 13.75 4.0q7.875 1.453125 18.15625 1.453125q10.03125 0 18.015625 -1.265625q8.0 -1.28125 14.671875 -3.390625q6.6875 -2.109375 12.21875 -4.796875q5.546875 -2.6875 10.5625 -5.5l0 29.35939l0 0z" fill-rule="nonzero"/><path fill="#000000" fill-opacity="0.0" d="m553.1244 95.78961l148.25195 0l0 218.17322l-148.25195 0z" fill-rule="evenodd"/><path fill="#000000" d="m584.42126 216.90211l0 51.687485l-11.0 0l0 -120.76561l60.125 0q13.796875 0 23.640625 2.15625q9.84375 2.15625 16.125 6.515625q6.28125 4.34375 9.1875 10.84375q2.90625 6.5 2.90625 15.203125q0 13.53125 -7.125 21.671875q-7.125 8.125 -22.9375 11.109375l41.21875 53.26561l-13.796875 0l-38.9375 -52.031235q-2.453125 0.171875 -5.015625 0.265625q-2.546875 0.078125 -5.265625 0.078125l-49.125 0zm89.640625 -34.359375q0 -7.734375 -2.734375 -12.515625q-2.71875 -4.796875 -8.875 -7.4375q-6.140625 -2.640625 -16.125 -3.5625q-9.96875 -0.921875 -24.46875 -0.921875l-37.4375 0l0 48.515625l37.078125 0q14.5 0 24.515625 -0.828125q10.03125 -0.84375 16.265625 -3.421875q6.25 -2.59375 9.015625 -7.296875q2.765625 -4.703125 2.765625 -12.53125z" fill-rule="nonzero"/><path fill="#000000" fill-opacity="0.0" d="m374.85614 95.80142l178.55121 0l0 218.17322l-178.55121 0z" fill-rule="evenodd"/><path fill="#000000" d="m508.4499 268.60144q-0.875 -9.84375 -4.75 -17.26564q-3.859375 -7.4375 -9.703125 -12.796875q-5.84375 -5.359375 -13.1875 -8.875q-7.34375 -3.515625 -15.078125 -5.578125q-7.734375 -2.0625 -15.421875 -2.890625q-7.6875 -0.84375 -14.28125 -0.84375l-9.671875 0l0 48.250015l-32.609375 0l0 -120.76564l32.609375 0l0 46.578125l6.6875 0q6.765625 0 14.140625 -1.046875q7.390625 -1.0625 14.640625 -3.34375q7.25 -2.28125 13.921875 -5.875q6.6875 -3.609375 11.953125 -8.796875q5.28125 -5.1875 8.796875 -12.0q3.515625 -6.8125 4.390625 -15.515625l33.234375 0q-0.890625 9.578125 -3.84375 17.3125q-2.9375 7.734375 -7.28125 13.84375q-4.34375 6.109375 -9.71875 10.6875q-5.359375 4.5625 -10.984375 7.859375q-5.625 3.296875 -11.203125 5.453125q-5.578125 2.15625 -10.40625 3.296875q6.140625 0.96875 12.78125 3.03125q6.640625 2.0625 13.140625 5.453125q6.5 3.375 12.4375 8.296875q5.9375 4.921875 10.671875 11.515625q4.75 6.59375 7.90625 15.03125q3.171875 8.437515 4.046875 18.98439l-33.21875 0z" fill-rule="nonzero"/><path fill="#000000" fill-opacity="0.0" d="m720.02466 95.67544l148.25195 0l0 218.17322l-148.25195 0z" fill-rule="evenodd"/><path fill="#000000" d="m850.89966 268.47543l-16.609375 -31.812485l-82.015625 0l-16.609375 31.812485l-12.03125 0l63.1875 -120.76561l12.921875 0l63.1875 120.76561l-12.03125 0zm-57.578125 -110.124985l-35.671875 68.203125l71.265625 0l-35.59375 -68.203125z" fill-rule="nonzero"/><path fill="#000000" fill-opacity="0.0" d="m1071.465 100.19679l216.75598 0l0 216.72441l-216.75598 0z" fill-rule="evenodd"/><path stroke="#000000" stroke-width="24.0" stroke-miterlimit="8.0" stroke-linecap="butt" d="m1071.465 100.19679l216.75598 0l0 216.72441l-216.75598 0z" fill-rule="evenodd"/><path fill="#000000" fill-opacity="0.0" d="m1287.8708 111.968895l0 0c-0.0021972656 113.17768 -91.53284 204.92514 -204.44092 204.92514l0 -204.92914z" fill-rule="evenodd"/><path fill="#000000" fill-opacity="0.0" d="m1287.8708 111.968895l0 0c-0.0021972656 113.17768 -91.53284 204.92514 -204.44092 204.92514" fill-rule="evenodd"/><path stroke="#000000" stroke-width="24.0" stroke-linejoin="round" stroke-linecap="butt" d="m1287.8708 111.968895l0 0c-0.0021972656 113.17768 -91.53284 204.92514 -204.44092 204.92514" fill-rule="evenodd"/><path fill="#000000" fill-opacity="0.0" d="m1029.6194 504.961l0 0c0 -7.723297 6.2608643 -13.984253 13.984253 -13.984253l0 0c3.7088623 0 7.265747 1.4733276 9.888306 4.095886c2.6225586 2.6225586 4.0959473 6.1795044 4.0959473 9.888367l0 0c0 7.7232666 -6.2609863 13.984253 -13.984253 13.984253l0 0c-7.7233887 0 -13.984253 -6.2609863 -13.984253 -13.984253z" fill-rule="evenodd"/><path stroke="#000000" stroke-width="1.0" stroke-linejoin="round" stroke-linecap="butt" d="m1029.6194 504.961l0 0c0 -7.723297 6.2608643 -13.984253 13.984253 -13.984253l0 0c3.7088623 0 7.265747 1.4733276 9.888306 4.095886c2.6225586 2.6225586 4.0959473 6.1795044 4.0959473 9.888367l0 0c0 7.7232666 -6.2609863 13.984253 -13.984253 13.984253l0 0c-7.7233887 0 -13.984253 -6.2609863 -13.984253 -13.984253z" fill-rule="evenodd"/><path fill="#000000" fill-opacity="0.0" d="m1028.9393 495.07263l0 19.779541" fill-rule="evenodd"/><path stroke="#000000" stroke-width="1.0" stroke-linejoin="round" stroke-linecap="butt" d="m1028.9393 495.07263l0 19.779541" fill-rule="evenodd"/><path fill="#000000" fill-opacity="0.0" d="m1029.6194 504.961l27.968506 0" fill-rule="evenodd"/><path stroke="#000000" stroke-width="1.0" stroke-linejoin="round" stroke-linecap="butt" d="m1029.6194 504.961l27.968506 0" fill-rule="evenodd"/><path fill="#000000" fill-opacity="0.0" d="m194.27205 505.9151l0 0c0 -7.723297 6.260956 -13.984253 13.984253 -13.984253l0 0c3.708847 0 7.265808 1.4733276 9.888351 4.095886c2.6225586 2.6225586 4.0959015 6.1795044 4.0959015 9.888367l0 0c0 7.7232666 -6.260971 13.984253 -13.984253 13.984253l0 0c-7.723297 0 -13.984253 -6.2609863 -13.984253 -13.984253z" fill-rule="evenodd"/><path stroke="#000000" stroke-width="1.0" stroke-linejoin="round" stroke-linecap="butt" d="m194.27205 505.9151l0 0c0 -7.723297 6.260956 -13.984253 13.984253 -13.984253l0 0c3.708847 0 7.265808 1.4733276 9.888351 4.095886c2.6225586 2.6225586 4.0959015 6.1795044 4.0959015 9.888367l0 0c0 7.7232666 -6.260971 13.984253 -13.984253 13.984253l0 0c-7.723297 0 -13.984253 -6.2609863 -13.984253 -13.984253z" fill-rule="evenodd"/><path fill="#000000" fill-opacity="0.0" d="m364.62482 550.5345l0 0c0 -7.7232666 6.260956 -13.984253 13.984253 -13.984253l0 0c3.7088623 0 7.265808 1.4733276 9.888367 4.095886c2.6225586 2.6225586 4.095886 6.1795044 4.095886 9.888367l0 0c0 7.7233276 -6.260956 13.984253 -13.984253 13.984253l0 0c-7.723297 0 -13.984253 -6.2609253 -13.984253 -13.984253z" fill-rule="evenodd"/><path stroke="#000000" stroke-width="1.0" stroke-linejoin="round" stroke-linecap="butt" d="m364.62482 550.5345l0 0c0 -7.7232666 6.260956 -13.984253 13.984253 -13.984253l0 0c3.7088623 0 7.265808 1.4733276 9.888367 4.095886c2.6225586 2.6225586 4.095886 6.1795044 4.095886 9.888367l0 0c0 7.7233276 -6.260956 13.984253 -13.984253 13.984253l0 0c-7.723297 0 -13.984253 -6.2609253 -13.984253 -13.984253z" fill-rule="evenodd"/><path fill="#000000" fill-opacity="0.0" d="m543.5535 564.22217l0 0c0 -7.7232666 6.2609863 -13.984253 13.984253 -13.984253l0 0c3.7088623 0 7.265808 1.4733276 9.888367 4.095886c2.6225586 2.6225586 4.095886 6.1795044 4.095886 9.888367l0 0c0 7.7233276 -6.2609863 13.984253 -13.984253 13.984253l0 0c-7.7232666 0 -13.984253 -6.2609253 -13.984253 -13.984253z" fill-rule="evenodd"/><path stroke="#000000" stroke-width="1.0" stroke-linejoin="round" stroke-linecap="butt" d="m543.5535 564.22217l0 0c0 -7.7232666 6.2609863 -13.984253 13.984253 -13.984253l0 0c3.7088623 0 7.265808 1.4733276 9.888367 4.095886c2.6225586 2.6225586 4.095886 6.1795044 4.095886 9.888367l0 0c0 7.7233276 -6.2609863 13.984253 -13.984253 13.984253l0 0c-7.7232666 0 -13.984253 -6.2609253 -13.984253 -13.984253z" fill-rule="evenodd"/><path fill="#000000" fill-opacity="0.0" d="m695.75055 564.22217l0 0c0 -7.7232666 6.2609253 -13.984253 13.984253 -13.984253l0 0c3.7088623 0 7.265808 1.4733276 9.888367 4.095886c2.6225586 2.6225586 4.095886 6.1795044 4.095886 9.888367l0 0c0 7.7233276 -6.2609863 13.984253 -13.984253 13.984253l0 0c-7.7233276 0 -13.984253 -6.2609253 -13.984253 -13.984253z" fill-rule="evenodd"/><path stroke="#000000" stroke-width="1.0" stroke-linejoin="round" stroke-linecap="butt" d="m695.75055 564.22217l0 0c0 -7.7232666 6.2609253 -13.984253 13.984253 -13.984253l0 0c3.7088623 0 7.265808 1.4733276 9.888367 4.095886c2.6225586 2.6225586 4.095886 6.1795044 4.095886 9.888367l0 0c0 7.7233276 -6.2609863 13.984253 -13.984253 13.984253l0 0c-7.7233276 0 -13.984253 -6.2609253 -13.984253 -13.984253z" fill-rule="evenodd"/><path fill="#000000" fill-opacity="0.0" d="m863.5518 564.2215l0 0c0 -7.7233276 6.2609253 -13.984253 13.984253 -13.984253l0 0c3.7088623 0 7.265808 1.4733276 9.888367 4.095886c2.6224976 2.6225586 4.095886 6.1795044 4.095886 9.888367l0 0c0 7.7232666 -6.2609863 13.984253 -13.984253 13.984253l0 0c-7.7233276 0 -13.984253 -6.2609863 -13.984253 -13.984253z" fill-rule="evenodd"/><path stroke="#000000" stroke-width="1.0" stroke-linejoin="round" stroke-linecap="butt" d="m863.5518 564.2215l0 0c0 -7.7233276 6.2609253 -13.984253 13.984253 -13.984253l0 0c3.7088623 0 7.265808 1.4733276 9.888367 4.095886c2.6224976 2.6225586 4.095886 6.1795044 4.095886 9.888367l0 0c0 7.7232666 -6.2609863 13.984253 -13.984253 13.984253l0 0c-7.7233276 0 -13.984253 -6.2609863 -13.984253 -13.984253z" fill-rule="evenodd"/><path fill="#000000" fill-opacity="0.0" d="m1024.8435 504.961l0 0c0 -7.723297 6.2608643 -13.984253 13.984253 -13.984253l0 0c3.7088623 0 7.265747 1.4733276 9.888306 4.095886c2.6225586 2.6225586 4.0959473 6.1795044 4.0959473 9.888367l0 0c0 7.7232666 -6.2609863 13.984253 -13.984253 13.984253l0 0c-7.7233887 0 -13.984253 -6.2609863 -13.984253 -13.984253z" fill-rule="evenodd"/><path stroke="#000000" stroke-width="1.0" stroke-linejoin="round" stroke-linecap="butt" d="m1024.8435 504.961l0 0c0 -7.723297 6.2608643 -13.984253 13.984253 -13.984253l0 0c3.7088623 0 7.265747 1.4733276 9.888306 4.095886c2.6225586 2.6225586 4.0959473 6.1795044 4.0959473 9.888367l0 0c0 7.7232666 -6.2609863 13.984253 -13.984253 13.984253l0 0c-7.7233887 0 -13.984253 -6.2609863 -13.984253 -13.984253z" fill-rule="evenodd"/><path fill="#000000" fill-opacity="0.0" d="m1038.8278 490.97675l0 27.968506" fill-rule="evenodd"/><path stroke="#000000" stroke-width="1.0" stroke-linejoin="round" stroke-linecap="butt" d="m1038.8278 490.97675l0 27.968506" fill-rule="evenodd"/><path fill="#000000" fill-opacity="0.0" d="m1024.8435 504.961l27.968506 0" fill-rule="evenodd"/><path stroke="#000000" stroke-width="1.0" stroke-linejoin="round" stroke-linecap="butt" d="m1024.8435 504.961l27.968506 0" fill-rule="evenodd"/><path fill="#000000" fill-opacity="0.0" d="m877.5361 550.23724l0 27.968506" fill-rule="evenodd"/><path stroke="#000000" stroke-width="1.0" stroke-linejoin="round" stroke-linecap="butt" d="m877.5361 550.23724l0 27.968506" fill-rule="evenodd"/><path fill="#000000" fill-opacity="0.0" d="m863.5518 564.2215l27.968506 0" fill-rule="evenodd"/><path stroke="#000000" stroke-width="1.0" stroke-linejoin="round" stroke-linecap="butt" d="m863.5518 564.2215l27.968506 0" fill-rule="evenodd"/><path fill="#000000" fill-opacity="0.0" d="m709.7348 550.2379l0 27.968506" fill-rule="evenodd"/><path stroke="#000000" stroke-width="1.0" stroke-linejoin="round" stroke-linecap="butt" d="m709.7348 550.2379l0 27.968506" fill-rule="evenodd"/><path fill="#000000" fill-opacity="0.0" d="m695.75055 564.22217l27.968506 0" fill-rule="evenodd"/><path stroke="#000000" stroke-width="1.0" stroke-linejoin="round" stroke-linecap="butt" d="m695.75055 564.22217l27.968506 0" fill-rule="evenodd"/><path fill="#000000" fill-opacity="0.0" d="m557.5378 550.2379l0 27.968506" fill-rule="evenodd"/><path stroke="#000000" stroke-width="1.0" stroke-linejoin="round" stroke-linecap="butt" d="m557.5378 550.2379l0 27.968506" fill-rule="evenodd"/><path fill="#000000" fill-opacity="0.0" d="m543.5535 564.22217l27.968506 0" fill-rule="evenodd"/><path stroke="#000000" stroke-width="1.0" stroke-linejoin="round" stroke-linecap="butt" d="m543.5535 564.22217l27.968506 0" fill-rule="evenodd"/><path fill="#000000" fill-opacity="0.0" d="m378.60907 536.55023l0 27.968506" fill-rule="evenodd"/><path stroke="#000000" stroke-width="1.0" stroke-linejoin="round" stroke-linecap="butt" d="m378.60907 536.55023l0 27.968506" fill-rule="evenodd"/><path fill="#000000" fill-opacity="0.0" d="m364.62482 550.5345l27.968506 0" fill-rule="evenodd"/><path stroke="#000000" stroke-width="1.0" stroke-linejoin="round" stroke-linecap="butt" d="m364.62482 550.5345l27.968506 0" fill-rule="evenodd"/><path fill="#000000" fill-opacity="0.0" d="m208.2563 491.93085l0 27.968506" fill-rule="evenodd"/><path stroke="#000000" stroke-width="1.0" stroke-linejoin="round" stroke-linecap="butt" d="m208.2563 491.93085l0 27.968506" fill-rule="evenodd"/><path fill="#000000" fill-opacity="0.0" d="m194.27205 505.9151l27.968506 0" fill-rule="evenodd"/><path stroke="#000000" stroke-width="1.0" stroke-linejoin="round" stroke-linecap="butt" d="m194.27205 505.9151l27.968506 0" fill-rule="evenodd"/><path fill="#000000" fill-opacity="0.0" d="m1053.492 495.07263l0 19.779541" fill-rule="evenodd"/><path stroke="#000000" stroke-width="1.0" stroke-linejoin="round" stroke-linecap="butt" d="m1053.492 495.07263l0 19.779541" fill-rule="evenodd"/></g></svg>